<svg version="1.1" id="Layer_1" xmlns="http://www.w3.org/2000/svg" xmlns:xlink="http://www.w3.org/1999/xlink" x="0px" y="0px"
	 width="100%" viewBox="0 0 480 179" enable-background="new 0 0 480 179" xml:space="preserve">
<path fill="#FEFEFF" opacity="1.000000" stroke="none" 
	d="
M340.000000,180.000000 
	C226.666733,180.000000 113.833458,180.000000 1.000136,180.000000 
	C1.000091,120.333427 1.000091,60.666851 1.000045,1.000208 
	C160.999817,1.000139 320.999634,1.000139 480.999573,1.000069 
	C480.999725,60.666458 480.999725,120.332916 480.999878,179.999695 
	C434.166656,180.000000 387.333344,180.000000 340.000000,180.000000 
M55.124527,43.908817 
	C50.389507,44.844166 45.654488,45.779510 40.175934,46.808033 
	C35.682899,49.595398 31.189861,52.382759 26.071449,55.515366 
	C9.346400,70.101151 8.792255,96.148216 16.453789,106.761238 
	C20.182186,103.623039 24.096897,100.328026 28.735426,96.907768 
	C33.146805,95.440231 37.558182,93.972702 42.880257,92.669991 
	C44.867447,92.762337 46.860821,93.001328 48.840588,92.917770 
	C53.565498,92.718376 58.283989,92.366821 63.727474,92.054413 
	C64.041061,91.951729 64.384125,91.900215 64.664009,91.739014 
	C78.145210,83.974197 82.561386,70.757439 85.539009,56.742462 
	C85.703682,55.967388 84.738770,54.526199 83.917633,54.039383 
	C79.693054,51.534794 75.343567,49.240891 70.525253,46.352322 
	C65.682945,45.589787 60.840641,44.827248 55.124527,43.908817 
M89.091026,116.888779 
	C97.986298,106.002281 101.999283,93.591507 98.841415,79.788971 
	C96.751579,70.654640 93.159416,61.863300 90.196251,52.932865 
	C90.104462,52.656250 89.528458,52.540302 88.886452,52.190487 
	C89.276566,56.147842 90.325249,59.853436 89.857849,63.356762 
	C88.507698,73.476669 86.546997,83.515121 84.312859,94.124290 
	C79.321976,107.217262 73.314522,119.764343 63.426121,131.354172 
	C74.422607,129.561081 82.140923,124.546753 89.091026,116.888779 
M163.348129,108.479622 
	C166.967407,106.688538 170.586700,104.897453 174.077423,103.169983 
	C175.501877,104.579842 177.457001,106.514908 179.412109,108.449982 
	C179.793716,108.103516 180.175308,107.757057 180.556915,107.410599 
	C180.556915,94.023300 180.556915,80.636002 180.556915,67.186859 
	C177.573639,67.186859 174.879150,67.186859 171.830475,67.186859 
	C171.830475,71.607689 171.830475,75.661575 171.830475,80.244484 
	C165.702164,75.866234 159.874390,75.751450 154.507568,80.152275 
	C149.054428,84.623871 147.877365,90.779182 149.564255,97.337646 
	C151.257111,103.919388 155.517105,107.935783 163.348129,108.479622 
M129.503250,80.474846 
	C129.503250,78.832184 129.503250,77.189522 129.503250,75.069130 
	C135.085281,75.069130 140.339050,75.069130 145.659729,75.069130 
	C145.659729,73.206627 145.659729,71.843719 145.659729,70.136314 
	C137.548721,70.136314 129.756516,70.129990 121.964371,70.145943 
	C121.171570,70.147560 120.379044,70.283127 119.499985,70.364532 
	C119.499985,82.981110 119.499985,95.310608 119.499985,107.865921 
	C124.228386,107.865921 128.544006,107.865929 132.859634,107.865929 
	C137.134613,107.865929 141.409592,107.865921 146.047882,107.865921 
	C145.884567,105.873085 145.772354,104.503777 145.635315,102.831436 
	C140.123245,102.831436 135.011536,102.831436 129.919022,102.831436 
	C129.919022,98.952164 129.919022,95.421242 129.919022,91.501266 
	C134.114761,91.501266 137.892365,91.501266 142.080933,91.501266 
	C141.984024,89.723969 141.910110,88.368599 141.817047,86.661896 
	C137.617889,86.661896 133.841858,86.661896 129.501160,86.661896 
	C129.501160,84.679565 129.501160,83.060539 129.503250,80.474846 
M287.155334,96.480392 
	C287.155334,90.369576 287.155334,84.258759 287.155334,78.147949 
	C286.707581,77.844498 286.259827,77.541054 285.812103,77.237602 
	C283.832336,79.153809 281.852570,81.070007 279.886017,82.973396 
	C274.075226,76.112961 267.438690,75.080063 260.968964,80.061440 
	C254.966995,84.682663 253.593338,95.457214 258.138885,102.259659 
	C262.446991,108.706764 270.122345,109.918633 277.776459,105.360237 
	C279.934021,108.367798 280.196960,108.425323 287.155334,107.229576 
	C287.155334,104.040955 287.155334,100.756706 287.155334,96.480392 
M393.786011,77.295158 
	C387.463165,76.113007 382.705933,78.334381 379.694275,83.915855 
	C376.805267,82.463837 377.552399,76.568794 372.484436,78.176056 
	C372.484436,88.184380 372.484436,97.911278 372.484436,107.547241 
	C375.475311,107.547241 378.062653,107.547241 381.001892,107.547241 
	C381.001892,102.430611 380.740967,97.609924 381.098969,92.835640 
	C381.316528,89.934128 382.023865,86.848221 383.404419,84.335983 
	C384.265503,82.769058 386.876038,81.174316 388.545959,81.324295 
	C390.157837,81.469048 391.952728,83.609848 392.954132,85.297028 
	C393.821411,86.758263 394.151459,88.876152 393.915833,90.593597 
	C393.062042,96.816551 391.825958,102.986130 390.842957,109.193085 
	C390.645020,110.442833 390.923157,111.767982 390.981812,113.058372 
	C392.320374,112.564430 394.130737,112.462952 394.921021,111.512909 
	C400.095917,105.291763 402.733826,97.969414 402.734772,89.920967 
	C402.735413,84.224350 400.561310,79.505188 393.786011,77.295158 
M195.796127,87.481422 
	C196.350769,84.429092 196.905411,81.376770 197.704254,76.980560 
	C194.790909,78.086525 191.536835,78.286469 190.608063,79.859406 
	C187.175156,85.673340 185.635315,92.165253 186.989029,99.002861 
	C187.957336,103.893799 191.033081,106.823914 195.866745,108.000854 
	C202.106445,109.520142 206.236023,106.331184 209.466934,101.805786 
	C211.641144,104.174042 213.624359,106.334259 215.607590,108.494469 
	C216.008804,108.163368 216.410034,107.832268 216.811249,107.501160 
	C216.811249,97.756912 216.811249,88.012665 216.811249,78.217079 
	C213.879333,78.217079 211.196671,78.217079 208.215836,78.217079 
	C208.215836,80.914200 208.362579,83.230629 208.185257,85.521973 
	C207.816452,90.287697 207.780502,95.175560 206.557739,99.731400 
	C206.068405,101.554604 202.830032,103.679604 200.804077,103.720078 
	C199.198380,103.752151 196.562714,101.046875 196.106598,99.144226 
	C195.281479,95.702309 195.741425,91.952347 195.796127,87.481422 
M362.470612,82.066956 
	C361.291229,81.155922 360.215729,80.045639 358.914978,79.367401 
	C352.314545,75.925941 345.683044,76.028595 339.581543,80.311974 
	C334.563690,83.834610 332.467255,89.004745 333.523285,95.138855 
	C334.682831,101.874130 339.601135,106.627991 346.471344,107.975563 
	C353.193756,109.294159 360.625031,106.491760 364.022797,101.118835 
	C368.047607,94.754356 367.481567,88.540329 362.470612,82.066956 
M438.336121,108.146957 
	C445.763702,107.647697 449.685486,104.714142 450.217346,99.259628 
	C450.710724,94.199966 448.578583,92.088615 440.772949,89.836678 
	C438.066406,89.055840 435.267426,88.447365 432.737946,87.271286 
	C431.677856,86.778397 430.529480,84.929855 430.664429,83.853508 
	C430.795349,82.809128 432.372833,81.479881 433.570099,81.116791 
	C438.540192,79.609619 442.200531,81.840584 445.096558,86.252670 
	C446.717896,84.805130 448.108673,83.563408 449.839752,82.017868 
	C443.683411,76.854736 437.335754,75.826057 430.346527,77.974182 
	C425.872101,79.349411 423.278687,82.366394 423.279724,87.110870 
	C423.280731,91.822418 426.800568,93.571075 430.570435,94.821655 
	C433.867035,95.915245 437.329315,96.572273 440.512970,97.910751 
	C441.694763,98.407600 442.854370,100.253799 442.946930,101.560951 
	C443.002899,102.351334 441.118164,103.722664 439.885864,104.083649 
	C434.666138,105.612709 430.999237,102.790230 427.634674,98.918594 
	C426.075714,100.282784 424.651764,101.528824 423.135956,102.855263 
	C427.255127,107.221748 432.081970,108.415909 438.336121,108.146957 
M305.891022,91.525581 
	C305.891022,88.235237 305.891022,84.944893 305.891022,81.158302 
	C308.520752,81.158302 310.653046,81.285042 312.755554,81.090050 
	C313.498505,81.021149 314.168610,80.166710 314.871979,79.670898 
	C314.116638,79.059822 313.413208,78.020721 312.595734,77.921539 
	C310.517120,77.669350 308.387482,77.837677 306.114685,77.837677 
	C305.939667,73.839378 305.790771,70.438087 305.644775,67.102646 
	C302.544098,67.102646 299.947235,67.102646 296.863831,67.102646 
	C296.863831,70.790878 296.863831,74.208466 296.863831,76.929779 
	C294.693909,77.888229 293.190033,78.552483 291.686157,79.216736 
	C293.241058,80.195129 294.795990,81.173523 297.098633,82.622406 
	C297.098633,90.311684 297.098633,98.897789 297.098633,107.425247 
	C300.298065,107.425247 302.995453,107.425247 305.890869,107.425247 
	C305.890869,102.170395 305.890869,97.343613 305.891022,91.525581 
M458.297791,98.440796 
	C458.297791,101.505211 458.297791,104.569633 458.297791,107.487267 
	C461.755554,107.487267 464.323608,107.487267 467.420532,107.487267 
	C467.420532,98.554123 467.420532,89.997192 467.420532,81.169487 
	C469.941437,81.169487 471.948486,81.348061 473.895233,81.083344 
	C474.696167,80.974426 475.367371,79.911316 476.097595,79.282227 
	C475.387360,78.798767 474.709015,77.966881 473.960754,77.898415 
	C471.870514,77.707146 469.751312,77.831871 467.387512,77.831871 
	C467.206085,73.853256 467.051544,70.464172 466.899963,67.140045 
	C463.881348,67.140045 461.308289,67.140045 458.281067,67.140045 
	C458.281067,70.714134 458.281067,73.972069 458.281067,76.567993 
	C456.106262,77.746094 454.564178,78.581436 453.022095,79.416779 
	C454.660034,80.336693 456.297974,81.256615 458.298004,82.379898 
	C458.298004,87.170937 458.298004,92.315475 458.297791,98.440796 
M44.959599,140.638672 
	C51.132881,140.999115 55.416237,138.628830 57.264187,132.416245 
	C58.394157,128.617432 59.959038,124.945488 61.035645,121.133827 
	C62.941715,114.385521 60.137974,106.415543 67.278778,101.015915 
	C66.963058,100.646355 66.647346,100.276794 66.331627,99.907234 
	C62.567730,99.907234 58.803825,99.907234 54.875683,99.907234 
	C56.005497,103.440048 58.272110,106.705505 57.439404,108.629776 
	C54.784885,114.764015 51.919621,121.325348 47.353367,125.969040 
	C42.735722,130.664963 41.615414,134.572800 44.959599,140.638672 
M232.066284,88.192024 
	C235.455627,79.518845 241.181168,78.265854 247.345718,84.693016 
	C248.130356,85.511070 249.831955,85.449608 252.296875,86.117569 
	C247.625763,77.742043 240.760727,75.322128 232.598831,77.904037 
	C225.866592,80.033684 222.144104,86.381210 222.853226,94.521996 
	C223.474808,101.657516 228.569748,107.132309 235.398514,108.002510 
	C243.659195,109.055176 249.030014,106.447472 250.728134,99.769714 
	C249.099960,100.031586 247.850540,100.944351 246.455124,101.468346 
	C243.660248,102.517845 240.328232,104.694084 238.065826,103.921684 
	C235.548462,103.062241 233.360565,99.699417 232.183273,96.934937 
	C231.223633,94.681480 231.964294,91.703918 232.066284,88.192024 
M327.836731,83.636566 
	C327.836731,81.860687 327.836731,80.084816 327.836731,78.154152 
	C324.617188,78.154152 321.930908,78.154152 319.283020,78.154152 
	C319.283020,88.176628 319.283020,97.855881 319.283020,107.588699 
	C322.179321,107.588699 324.746429,107.588699 327.836487,107.588699 
	C327.836487,99.749573 327.836487,92.177223 327.836731,83.636566 
M417.219574,97.473343 
	C417.219574,91.059547 417.219574,84.645744 417.219574,78.173721 
	C414.062836,78.173721 411.514130,78.173721 409.057312,78.173721 
	C409.057312,88.193504 409.057312,97.868820 409.057312,107.569275 
	C411.901276,107.569275 414.312683,107.569275 417.219818,107.569275 
	C417.219818,104.360626 417.219818,101.410393 417.219574,97.473343 
M34.895561,114.097351 
	C31.972673,107.244759 27.495018,107.473839 20.830437,115.405716 
	C24.776062,118.895477 28.735035,122.397034 33.726013,126.811363 
	C34.269413,121.760750 34.636448,118.349335 34.895561,114.097351 
M82.994225,41.013977 
	C86.218353,41.013977 89.442482,41.013977 92.231636,41.013977 
	C92.374939,37.830673 92.520058,34.607182 92.663208,31.427456 
	C89.482811,31.427456 86.274727,31.427456 83.584572,31.427456 
	C83.112373,34.697960 82.691475,37.613159 82.994225,41.013977 
M408.172974,71.249863 
	C409.579773,74.640533 411.895935,76.588326 415.341339,74.251030 
	C416.610657,73.389938 417.661255,70.794617 417.310272,69.356812 
	C416.964294,67.939720 414.854401,66.284828 413.276886,65.978600 
	C410.174133,65.376274 408.462280,67.382523 408.172974,71.249863 
M327.014740,67.464775 
	C322.792267,64.929398 319.335114,65.599442 318.974182,69.303764 
	C318.813751,70.950127 319.812988,73.174042 321.042786,74.331612 
	C321.894165,75.132988 324.983032,75.166672 325.425079,74.481224 
	C326.588074,72.677887 326.851562,70.294426 327.014740,67.464775 
M103.332802,48.883488 
	C101.811867,48.183712 100.290924,47.483936 98.279648,46.558559 
	C98.279648,49.125404 98.279648,50.706356 98.279648,52.491264 
	C99.912537,52.491264 101.505447,52.491264 103.196518,52.491264 
	C103.196518,51.535374 103.196518,50.568974 103.332802,48.883488 
z"/>
<path fill="#125AA1" opacity="1.000000" stroke="none" 
	d="
M162.964294,108.461769 
	C155.517105,107.935783 151.257111,103.919388 149.564255,97.337646 
	C147.877365,90.779182 149.054428,84.623871 154.507568,80.152275 
	C159.874390,75.751450 165.702164,75.866234 171.830475,80.244484 
	C171.830475,75.661575 171.830475,71.607689 171.830475,67.186859 
	C174.879150,67.186859 177.573639,67.186859 180.556915,67.186859 
	C180.556915,80.636002 180.556915,94.023300 180.556915,107.410599 
	C180.175308,107.757057 179.793716,108.103516 179.412109,108.449982 
	C177.457001,106.514908 175.501877,104.579842 174.077423,103.169983 
	C170.586700,104.897453 166.967407,106.688538 162.964294,108.461769 
M158.031555,95.996361 
	C158.261139,96.956154 158.180832,98.230850 158.777298,98.817833 
	C160.716415,100.726105 162.938568,103.793785 164.984680,103.742424 
	C167.062576,103.690277 170.526611,100.655205 170.793884,98.591125 
	C171.380005,94.064560 170.704483,89.244965 169.727097,84.721550 
	C169.418396,83.292816 166.456192,81.456947 164.812805,81.555138 
	C162.927231,81.667801 160.179916,83.351166 159.548462,85.013657 
	C158.362885,88.135063 158.429581,91.732109 158.031555,95.996361 
z"/>
<path fill="#1256A2" opacity="1.000000" stroke="none" 
	d="
M129.502197,80.958176 
	C129.501160,83.060539 129.501160,84.679565 129.501160,86.661896 
	C133.841858,86.661896 137.617889,86.661896 141.817047,86.661896 
	C141.910110,88.368599 141.984024,89.723969 142.080933,91.501266 
	C137.892365,91.501266 134.114761,91.501266 129.919022,91.501266 
	C129.919022,95.421242 129.919022,98.952164 129.919022,102.831436 
	C135.011536,102.831436 140.123245,102.831436 145.635315,102.831436 
	C145.772354,104.503777 145.884567,105.873085 146.047882,107.865921 
	C141.409592,107.865921 137.134613,107.865929 132.859634,107.865929 
	C128.544006,107.865929 124.228386,107.865921 119.499985,107.865921 
	C119.499985,95.310608 119.499985,82.981110 119.499985,70.364532 
	C120.379044,70.283127 121.171570,70.147560 121.964371,70.145943 
	C129.756516,70.129990 137.548721,70.136314 145.659729,70.136314 
	C145.659729,71.843719 145.659729,73.206627 145.659729,75.069130 
	C140.339050,75.069130 135.085281,75.069130 129.503250,75.069130 
	C129.503250,77.189522 129.503250,78.832184 129.502197,80.958176 
z"/>
<path fill="#0B549E" opacity="1.000000" stroke="none" 
	d="
M28.011606,97.033005 
	C24.096897,100.328026 20.182186,103.623039 16.453789,106.761238 
	C8.792255,96.148216 9.346400,70.101151 26.461731,55.819454 
	C27.235006,59.866787 27.888472,63.605694 27.948540,67.354111 
	C28.107031,77.244873 28.008066,87.139763 28.011606,97.033005 
z"/>
<path fill="#16679D" opacity="1.000000" stroke="none" 
	d="
M287.155334,96.976425 
	C287.155334,100.756706 287.155334,104.040955 287.155334,107.229576 
	C280.196960,108.425323 279.934021,108.367798 277.776459,105.360237 
	C270.122345,109.918633 262.446991,108.706764 258.138885,102.259659 
	C253.593338,95.457214 254.966995,84.682663 260.968964,80.061440 
	C267.438690,75.080063 274.075226,76.112961 279.886017,82.973396 
	C281.852570,81.070007 283.832336,79.153809 285.812103,77.237602 
	C286.259827,77.541054 286.707581,77.844498 287.155334,78.147949 
	C287.155334,84.258759 287.155334,90.369576 287.155334,96.976425 
M264.248444,93.348541 
	C264.539520,95.151566 264.290894,97.343887 265.245941,98.668022 
	C266.745911,100.747719 269.014313,103.547897 271.037476,103.614670 
	C273.034363,103.680580 276.509033,101.007751 276.902771,99.047729 
	C277.780243,94.679871 277.641571,89.918549 276.862183,85.503784 
	C276.565704,83.824478 273.392792,81.584579 271.499939,81.554626 
	C269.590118,81.524406 267.025208,83.530151 265.878021,85.354828 
	C264.646637,87.313477 264.731812,90.099869 264.248444,93.348541 
z"/>
<path fill="#1D779B" opacity="1.000000" stroke="none" 
	d="
M394.159912,77.441406 
	C400.561310,79.505188 402.735413,84.224350 402.734772,89.920967 
	C402.733826,97.969414 400.095917,105.291763 394.921021,111.512909 
	C394.130737,112.462952 392.320374,112.564430 390.981812,113.058365 
	C390.923157,111.767982 390.645020,110.442833 390.842957,109.193085 
	C391.825958,102.986130 393.062042,96.816551 393.915833,90.593597 
	C394.151459,88.876152 393.821411,86.758263 392.954132,85.297028 
	C391.952728,83.609848 390.157837,81.469048 388.545959,81.324295 
	C386.876038,81.174316 384.265503,82.769058 383.404419,84.335983 
	C382.023865,86.848221 381.316528,89.934128 381.098969,92.835640 
	C380.740967,97.609924 381.001892,102.430611 381.001892,107.547241 
	C378.062653,107.547241 375.475311,107.547241 372.484436,107.547241 
	C372.484436,97.911278 372.484436,88.184380 372.484436,78.176056 
	C377.552399,76.568794 376.805267,82.463837 379.694275,83.915855 
	C382.705933,78.334381 387.463165,76.113007 394.159912,77.441406 
z"/>
<path fill="#115D9F" opacity="1.000000" stroke="none" 
	d="
M195.730469,87.906212 
	C195.741425,91.952347 195.281479,95.702309 196.106598,99.144226 
	C196.562714,101.046875 199.198380,103.752151 200.804077,103.720078 
	C202.830032,103.679604 206.068405,101.554604 206.557739,99.731400 
	C207.780502,95.175560 207.816452,90.287697 208.185257,85.521973 
	C208.362579,83.230629 208.215836,80.914200 208.215836,78.217079 
	C211.196671,78.217079 213.879333,78.217079 216.811249,78.217079 
	C216.811249,88.012665 216.811249,97.756912 216.811249,107.501160 
	C216.410034,107.832268 216.008804,108.163368 215.607590,108.494469 
	C213.624359,106.334259 211.641144,104.174042 209.466934,101.805786 
	C206.236023,106.331184 202.106445,109.520142 195.866745,108.000854 
	C191.033081,106.823914 187.957336,103.893799 186.989029,99.002861 
	C185.635315,92.165253 187.175156,85.673340 190.608063,79.859406 
	C191.536835,78.286469 194.790909,78.086525 197.704254,76.980560 
	C196.905411,81.376770 196.350769,84.429092 195.730469,87.906212 
z"/>
<path fill="#1D7C98" opacity="1.000000" stroke="none" 
	d="
M84.826027,93.585556 
	C86.546997,83.515121 88.507698,73.476669 89.857849,63.356762 
	C90.325249,59.853436 89.276566,56.147842 88.886452,52.190487 
	C89.528458,52.540302 90.104462,52.656250 90.196251,52.932865 
	C93.159416,61.863300 96.751579,70.654640 98.841415,79.788971 
	C101.999283,93.591507 97.986298,106.002281 88.442245,116.815445 
	C87.529572,111.073677 87.431892,105.390053 86.915535,99.744720 
	C86.723534,97.645523 85.551277,95.635979 84.826027,93.585556 
z"/>
<path fill="#0E5B9D" opacity="1.000000" stroke="none" 
	d="
M28.373514,96.970383 
	C28.008066,87.139763 28.107031,77.244873 27.948540,67.354111 
	C27.888472,63.605694 27.235006,59.866787 26.774420,55.646835 
	C31.189861,52.382759 35.682899,49.595398 40.571190,47.246559 
	C40.977886,50.795887 40.740055,53.934929 41.088230,57.007572 
	C41.321060,59.062325 42.386875,61.022686 42.939163,63.330650 
	C38.869900,67.756317 34.941399,71.876610 30.110033,76.943855 
	C34.622143,76.943855 38.312458,76.943855 42.003471,77.412964 
	C41.992630,82.756439 41.981094,87.630798 41.969559,92.505173 
	C37.558182,93.972702 33.146805,95.440231 28.373514,96.970383 
M35.524364,80.648857 
	C36.225426,81.733536 36.926487,82.818214 37.627548,83.902901 
	C37.993553,83.509995 38.359554,83.117096 38.725559,82.724190 
	C37.860611,82.067833 36.995667,81.411476 35.524364,80.648857 
z"/>
<path fill="#1B729C" opacity="1.000000" stroke="none" 
	d="
M362.713409,82.339012 
	C367.481567,88.540329 368.047607,94.754356 364.022797,101.118835 
	C360.625031,106.491760 353.193756,109.294159 346.471344,107.975563 
	C339.601135,106.627991 334.682831,101.874130 333.523285,95.138855 
	C332.467255,89.004745 334.563690,83.834610 339.581543,80.311974 
	C345.683044,76.028595 352.314545,75.925941 358.914978,79.367401 
	C360.215729,80.045639 361.291229,81.155922 362.713409,82.339012 
M357.807068,93.339775 
	C357.298523,90.586731 357.398529,87.489555 356.095673,85.185707 
	C354.983032,83.218117 352.216980,80.952202 350.259766,81.021011 
	C348.027161,81.099510 344.943878,83.149223 343.924103,85.189056 
	C342.528442,87.980865 342.169464,91.604912 342.365509,94.811150 
	C342.738647,100.913254 345.699463,104.538925 349.563965,104.817871 
	C353.580139,105.107773 356.163086,102.138039 357.528259,95.648537 
	C357.630615,95.161774 357.681427,94.664162 357.807068,93.339775 
z"/>
<path fill="#207E9A" opacity="1.000000" stroke="none" 
	d="
M437.884033,108.163330 
	C432.081970,108.415909 427.255127,107.221748 423.135956,102.855263 
	C424.651764,101.528824 426.075714,100.282784 427.634674,98.918594 
	C430.999237,102.790230 434.666138,105.612709 439.885864,104.083649 
	C441.118164,103.722664 443.002899,102.351334 442.946930,101.560951 
	C442.854370,100.253799 441.694763,98.407600 440.512970,97.910751 
	C437.329315,96.572273 433.867035,95.915245 430.570435,94.821655 
	C426.800568,93.571075 423.280731,91.822418 423.279724,87.110870 
	C423.278687,82.366394 425.872101,79.349411 430.346527,77.974182 
	C437.335754,75.826057 443.683411,76.854736 449.839752,82.017868 
	C448.108673,83.563408 446.717896,84.805130 445.096558,86.252670 
	C442.200531,81.840584 438.540192,79.609619 433.570099,81.116791 
	C432.372833,81.479881 430.795349,82.809128 430.664429,83.853508 
	C430.529480,84.929855 431.677856,86.778397 432.737946,87.271286 
	C435.267426,88.447365 438.066406,89.055840 440.772949,89.836678 
	C448.578583,92.088615 450.710724,94.199966 450.217346,99.259628 
	C449.685486,104.714142 445.763702,107.647697 437.884033,108.163330 
z"/>
<path fill="#1B749A" opacity="1.000000" stroke="none" 
	d="
M71.037689,46.873425 
	C75.343567,49.240891 79.693054,51.534794 83.917633,54.039383 
	C84.738770,54.526199 85.703682,55.967388 85.539009,56.742462 
	C82.561386,70.757439 78.145210,83.974197 64.664009,91.739014 
	C64.384125,91.900215 64.041061,91.951729 63.315918,91.669800 
	C62.015324,90.367577 61.126289,89.449966 60.558601,88.355034 
	C63.505199,85.813988 67.573662,83.869766 68.411751,80.986549 
	C69.618004,76.836754 68.474861,72.004044 68.396614,69.473694 
	C71.232300,65.335495 73.724472,61.698601 76.114990,58.210052 
	C74.609718,58.092789 72.800369,57.951836 70.994255,57.362400 
	C71.010895,53.567085 71.024292,50.220257 71.037689,46.873425 
z"/>
<path fill="#15699B" opacity="1.000000" stroke="none" 
	d="
M305.890930,92.021210 
	C305.890869,97.343613 305.890869,102.170395 305.890869,107.425247 
	C302.995453,107.425247 300.298065,107.425247 297.098633,107.425247 
	C297.098633,98.897789 297.098633,90.311684 297.098633,82.622406 
	C294.795990,81.173523 293.241058,80.195129 291.686157,79.216736 
	C293.190033,78.552483 294.693909,77.888229 296.863831,76.929779 
	C296.863831,74.208466 296.863831,70.790878 296.863831,67.102646 
	C299.947235,67.102646 302.544098,67.102646 305.644775,67.102646 
	C305.790771,70.438087 305.939667,73.839378 306.114685,77.837677 
	C308.387482,77.837677 310.517120,77.669350 312.595734,77.921539 
	C313.413208,78.020721 314.116638,79.059822 314.871979,79.670906 
	C314.168610,80.166710 313.498505,81.021149 312.755554,81.090050 
	C310.653046,81.285042 308.520752,81.158302 305.891022,81.158302 
	C305.891022,84.944893 305.891022,88.235237 305.890930,92.021210 
z"/>
<path fill="#218199" opacity="1.000000" stroke="none" 
	d="
M458.297913,97.950401 
	C458.298004,92.315475 458.298004,87.170937 458.298004,82.379898 
	C456.297974,81.256615 454.660034,80.336693 453.022095,79.416779 
	C454.564178,78.581436 456.106262,77.746094 458.281067,76.567993 
	C458.281067,73.972069 458.281067,70.714134 458.281067,67.140045 
	C461.308289,67.140045 463.881348,67.140045 466.899963,67.140045 
	C467.051544,70.464172 467.206085,73.853256 467.387512,77.831871 
	C469.751312,77.831871 471.870514,77.707146 473.960754,77.898415 
	C474.709015,77.966881 475.387360,78.798767 476.097595,79.282227 
	C475.367371,79.911316 474.696167,80.974426 473.895233,81.083344 
	C471.948486,81.348061 469.941437,81.169487 467.420532,81.169487 
	C467.420532,89.997192 467.420532,98.554123 467.420532,107.487267 
	C464.323608,107.487267 461.755554,107.487267 458.297791,107.487267 
	C458.297791,104.569633 458.297791,101.505211 458.297913,97.950401 
z"/>
<path fill="#186A9D" opacity="1.000000" stroke="none" 
	d="
M44.684097,140.362549 
	C41.615414,134.572800 42.735722,130.664963 47.353367,125.969040 
	C51.919621,121.325348 54.784885,114.764015 57.439404,108.629776 
	C58.272110,106.705505 56.005497,103.440048 54.875683,99.907234 
	C58.803825,99.907234 62.567730,99.907234 66.331627,99.907234 
	C66.647346,100.276794 66.963058,100.646355 67.278778,101.015915 
	C60.137974,106.415543 62.941715,114.385521 61.035645,121.133827 
	C59.959038,124.945488 58.394157,128.617432 57.264187,132.416245 
	C55.416237,138.628830 51.132881,140.999115 44.684097,140.362549 
z"/>
<path fill="#1865A0" opacity="1.000000" stroke="none" 
	d="
M232.008652,88.619736 
	C231.964294,91.703918 231.223633,94.681480 232.183273,96.934937 
	C233.360565,99.699417 235.548462,103.062241 238.065826,103.921684 
	C240.328232,104.694084 243.660248,102.517845 246.455124,101.468346 
	C247.850540,100.944351 249.099960,100.031586 250.728134,99.769714 
	C249.030014,106.447472 243.659195,109.055176 235.398514,108.002510 
	C228.569748,107.132309 223.474808,101.657516 222.853226,94.521996 
	C222.144104,86.381210 225.866592,80.033684 232.598831,77.904037 
	C240.760727,75.322128 247.625763,77.742043 252.296875,86.117569 
	C249.831955,85.449608 248.130356,85.511070 247.345718,84.693016 
	C241.181168,78.265854 235.455627,79.518845 232.008652,88.619736 
z"/>
<path fill="#197499" opacity="1.000000" stroke="none" 
	d="
M84.569443,93.854919 
	C85.551277,95.635979 86.723534,97.645523 86.915535,99.744720 
	C87.431892,105.390053 87.529572,111.073677 88.175743,116.991608 
	C82.140923,124.546753 74.422607,129.561081 63.426121,131.354172 
	C73.314522,119.764343 79.321976,107.217262 84.569443,93.854919 
z"/>
<path fill="#1A6E9C" opacity="1.000000" stroke="none" 
	d="
M327.836609,84.120712 
	C327.836487,92.177223 327.836487,99.749573 327.836487,107.588699 
	C324.746429,107.588699 322.179321,107.588699 319.283020,107.588699 
	C319.283020,97.855881 319.283020,88.176628 319.283020,78.154152 
	C321.930908,78.154152 324.617188,78.154152 327.836731,78.154152 
	C327.836731,80.084816 327.836731,81.860687 327.836609,84.120712 
z"/>
<path fill="#177697" opacity="1.000000" stroke="none" 
	d="
M417.219696,97.966751 
	C417.219818,101.410393 417.219818,104.360626 417.219818,107.569275 
	C414.312683,107.569275 411.901276,107.569275 409.057312,107.569275 
	C409.057312,97.868820 409.057312,88.193504 409.057312,78.173721 
	C411.514130,78.173721 414.062836,78.173721 417.219574,78.173721 
	C417.219574,84.645744 417.219574,91.059547 417.219696,97.966751 
z"/>
<path fill="#10629B" opacity="1.000000" stroke="none" 
	d="
M43.079933,63.025284 
	C42.386875,61.022686 41.321060,59.062325 41.088230,57.007572 
	C40.740055,53.934929 40.977886,50.795887 40.942959,47.199974 
	C45.654488,45.779510 50.389507,44.844166 55.562134,44.445160 
	C55.999454,48.974072 55.999165,52.966637 55.587219,57.045639 
	C49.660755,56.052814 46.624390,60.060467 43.079933,63.025284 
z"/>
<path fill="#126A99" opacity="1.000000" stroke="none" 
	d="
M55.998878,56.959202 
	C55.999165,52.966637 55.999454,48.974072 55.999039,44.523109 
	C60.840641,44.827248 65.682945,45.589787 70.781479,46.612873 
	C71.024292,50.220257 71.010895,53.567085 70.543907,57.414642 
	C65.393173,57.596645 60.696026,57.277924 55.998878,56.959202 
z"/>
<path fill="#16669E" opacity="1.000000" stroke="none" 
	d="
M60.237255,88.532356 
	C61.126289,89.449966 62.015324,90.367577 62.954712,91.680954 
	C58.283989,92.366821 53.565498,92.718376 48.840588,92.917770 
	C46.860821,93.001328 44.867447,92.762337 42.424908,92.587578 
	C41.981094,87.630798 41.992630,82.756439 42.389984,77.333954 
	C43.522461,77.437737 44.637833,77.945152 44.958664,78.763916 
	C48.120708,86.833397 51.820026,89.251617 60.237255,88.532356 
z"/>
<path fill="#135DA0" opacity="1.000000" stroke="none" 
	d="
M34.949524,114.517639 
	C34.636448,118.349335 34.269413,121.760750 33.726013,126.811363 
	C28.735035,122.397034 24.776062,118.895477 20.830437,115.405716 
	C27.495018,107.473839 31.972673,107.244759 34.949524,114.517639 
z"/>
<path fill="#FFBD20" opacity="1.000000" stroke="none" 
	d="
M82.632401,40.771168 
	C82.691475,37.613159 83.112373,34.697960 83.584572,31.427456 
	C86.274727,31.427456 89.482811,31.427456 92.663208,31.427456 
	C92.520058,34.607182 92.374939,37.830673 92.231636,41.013977 
	C89.442482,41.013977 86.218353,41.013977 82.632401,40.771168 
z"/>
<path fill="#217B9B" opacity="1.000000" stroke="none" 
	d="
M408.138580,70.860664 
	C408.462280,67.382523 410.174133,65.376274 413.276886,65.978600 
	C414.854401,66.284828 416.964294,67.939720 417.310272,69.356812 
	C417.661255,70.794617 416.610657,73.389938 415.341339,74.251030 
	C411.895935,76.588326 409.579773,74.640533 408.138580,70.860664 
z"/>
<path fill="#166C9B" opacity="1.000000" stroke="none" 
	d="
M327.244019,67.803406 
	C326.851562,70.294426 326.588074,72.677887 325.425079,74.481224 
	C324.983032,75.166672 321.894165,75.132988 321.042786,74.331612 
	C319.812988,73.174042 318.813751,70.950127 318.974182,69.303764 
	C319.335114,65.599442 322.792267,64.929398 327.244019,67.803406 
z"/>
<path fill="#FFC02E" opacity="1.000000" stroke="none" 
	d="
M103.264664,49.243031 
	C103.196518,50.568974 103.196518,51.535374 103.196518,52.491264 
	C101.505447,52.491264 99.912537,52.491264 98.279648,52.491264 
	C98.279648,50.706356 98.279648,49.125404 98.279648,46.558559 
	C100.290924,47.483936 101.811867,48.183712 103.264664,49.243031 
z"/>
<path fill="#F9FBFD" opacity="1.000000" stroke="none" 
	d="
M158.003540,95.563858 
	C158.429581,91.732109 158.362885,88.135063 159.548462,85.013657 
	C160.179916,83.351166 162.927231,81.667801 164.812805,81.555138 
	C166.456192,81.456947 169.418396,83.292816 169.727097,84.721550 
	C170.704483,89.244965 171.380005,94.064560 170.793884,98.591125 
	C170.526611,100.655205 167.062576,103.690277 164.984680,103.742424 
	C162.938568,103.793785 160.716415,100.726105 158.777298,98.817833 
	C158.180832,98.230850 158.261139,96.956154 158.003540,95.563858 
z"/>
<path fill="#F8FBFC" opacity="1.000000" stroke="none" 
	d="
M264.245422,92.936798 
	C264.731812,90.099869 264.646637,87.313477 265.878021,85.354828 
	C267.025208,83.530151 269.590118,81.524406 271.499939,81.554626 
	C273.392792,81.584579 276.565704,83.824478 276.862183,85.503784 
	C277.641571,89.918549 277.780243,94.679871 276.902771,99.047729 
	C276.509033,101.007751 273.034363,103.680580 271.037476,103.614670 
	C269.014313,103.547897 266.745911,100.747719 265.245941,98.668022 
	C264.290894,97.343887 264.539520,95.151566 264.245422,92.936798 
z"/>
<path fill="#F9FBFD" opacity="1.000000" stroke="none" 
	d="
M60.558601,88.355034 
	C51.820026,89.251617 48.120708,86.833397 44.958664,78.763916 
	C44.637833,77.945152 43.522461,77.437737 42.389290,76.864845 
	C38.312458,76.943855 34.622143,76.943855 30.110033,76.943855 
	C34.941399,71.876610 38.869900,67.756317 42.939167,63.330650 
	C46.624390,60.060467 49.660755,56.052814 55.587219,57.045639 
	C60.696026,57.277924 65.393173,57.596645 70.540665,57.863125 
	C72.800369,57.951836 74.609718,58.092789 76.114990,58.210052 
	C73.724472,61.698601 71.232300,65.335495 68.396614,69.473694 
	C68.474861,72.004044 69.618004,76.836754 68.411751,80.986549 
	C67.573662,83.869766 63.505199,85.813988 60.558601,88.355034 
z"/>
<path fill="#16669E" opacity="1.000000" stroke="none" 
	d="
M35.827545,80.701981 
	C36.995667,81.411476 37.860611,82.067833 38.725559,82.724190 
	C38.359554,83.117096 37.993553,83.509995 37.627548,83.902901 
	C36.926487,82.818214 36.225426,81.733536 35.827545,80.701981 
z"/>
<path fill="#F7FAFB" opacity="1.000000" stroke="none" 
	d="
M357.781616,93.755684 
	C357.681427,94.664162 357.630615,95.161774 357.528259,95.648537 
	C356.163086,102.138039 353.580139,105.107773 349.563965,104.817871 
	C345.699463,104.538925 342.738647,100.913254 342.365509,94.811150 
	C342.169464,91.604912 342.528442,87.980865 343.924103,85.189056 
	C344.943878,83.149223 348.027161,81.099510 350.259766,81.021011 
	C352.216980,80.952202 354.983032,83.218117 356.095673,85.185707 
	C357.398529,87.489555 357.298523,90.586731 357.781616,93.755684 
z"/>
</svg>