<svg version="1.1" id="Layer_1" xmlns="http://www.w3.org/2000/svg" xmlns:xlink="http://www.w3.org/1999/xlink" x="0px" y="0px"
	 width="100%" viewBox="0 0 480 176" enable-background="new 0 0 480 176" xml:space="preserve">
<path fill="#000000" opacity="1.000000" stroke="none" 
	d="
M244.792603,24.704575 
	C270.015076,27.689198 286.746521,40.580833 294.295105,64.624992 
	C295.227173,67.593887 296.832642,68.797531 299.761963,69.468056 
	C314.912201,72.935936 325.128143,82.044441 328.564117,97.310562 
	C333.292877,118.320564 320.140594,139.230316 298.526764,142.412766 
	C291.548767,143.440231 284.580078,143.213882 277.599823,143.225525 
	C251.448608,143.269165 225.297028,143.310226 199.146072,143.215622 
	C185.241669,143.165314 173.093079,138.889282 163.471344,128.255066 
	C141.298569,103.749062 154.124268,62.338745 186.334335,55.156227 
	C190.089447,54.318878 192.320923,52.608799 194.462662,49.477329 
	C206.416763,31.999084 223.158127,23.811436 244.792603,24.704575 
M286.574524,89.956886 
	C284.041748,93.538338 282.823669,98.040169 278.607880,101.508713 
	C275.639496,96.708511 272.838074,92.284042 270.154633,87.789131 
	C269.009674,85.871246 267.598633,84.784447 265.283173,85.220161 
	C262.769440,85.693176 262.887329,87.789276 262.840393,89.527252 
	C262.665802,95.992569 262.691650,102.463051 262.558563,108.929871 
	C262.516388,110.979034 262.734955,112.574005 265.306152,112.714989 
	C268.016602,112.863609 268.621185,111.402229 268.775543,109.033264 
	C268.980896,105.881943 267.868378,102.523674 269.783936,99.407150 
	C272.432343,100.804977 273.215454,103.326591 274.567749,105.345612 
	C278.433868,111.117874 279.521667,111.058807 283.430542,105.059959 
	C284.852600,102.877541 285.433716,99.867554 289.255493,98.394653 
	C289.255493,102.306763 289.276001,105.580894 289.248322,108.854614 
	C289.229553,111.074394 289.596405,112.811638 292.454987,112.773056 
	C294.950287,112.739365 295.604370,111.302559 295.557770,109.227104 
	C295.401123,102.247086 295.343597,95.260254 294.958588,88.292023 
	C294.784973,85.150009 291.605469,83.994637 289.215576,86.064392 
	C288.249634,86.900932 287.703064,88.221634 286.574524,89.956886 
M254.747787,110.229759 
	C258.475616,104.143654 257.306396,100.141068 250.896744,97.704575 
	C248.579681,96.823784 246.072586,96.454124 243.677811,95.762558 
	C242.192352,95.333603 240.766327,94.619255 240.729202,92.810509 
	C240.686996,90.755661 242.227722,90.008606 243.907776,89.520599 
	C246.452713,88.781364 248.858704,89.680443 251.271317,90.250618 
	C252.782272,90.607712 253.963501,90.409889 254.497513,88.837341 
	C255.086609,87.102562 254.352798,85.953026 252.676361,85.327438 
	C248.802765,83.881927 244.767578,83.675865 240.903549,84.838364 
	C236.889420,86.046013 233.454956,88.605225 233.530853,93.230667 
	C233.603836,97.679169 236.998566,99.741020 240.961060,100.869629 
	C243.199219,101.507111 245.453796,102.114410 247.634323,102.916466 
	C248.914047,103.387177 250.003952,104.336990 249.752335,105.920090 
	C249.506973,107.463776 248.309448,108.119164 246.870361,108.204018 
	C244.215485,108.360580 241.526688,108.657043 238.983597,107.532089 
	C235.490417,105.986839 234.124847,107.357407 234.031113,111.200378 
	C240.947449,113.922493 247.588135,114.734924 254.747787,110.229759 
M221.626236,108.065514 
	C221.639023,104.234093 221.873154,100.387177 221.606308,96.575333 
	C221.300476,92.207199 222.213882,89.358353 227.407394,89.783409 
	C229.003464,89.914032 230.507599,89.235893 230.455704,87.285126 
	C230.400406,85.205566 228.683014,85.108986 227.171906,85.095879 
	C221.342255,85.045280 215.511841,85.034309 209.682098,85.070526 
	C207.781204,85.082336 205.705521,85.360420 205.720947,87.828278 
	C205.736572,90.323532 207.966385,89.958527 209.499908,89.870590 
	C213.208908,89.657898 214.549438,91.269165 214.381546,94.909294 
	C214.174561,99.397186 214.338959,103.902664 214.360947,108.400444 
	C214.370834,110.423149 214.191727,112.543304 217.155441,112.735367 
	C219.923233,112.914719 221.775803,112.158875 221.626236,108.065514 
M200.763535,97.514481 
	C200.752350,94.529373 200.709702,91.543938 200.740372,88.559258 
	C200.763199,86.338623 199.841904,85.153915 197.512115,85.139587 
	C195.214554,85.125458 194.181030,86.236427 194.182312,88.476013 
	C194.186295,95.440979 194.184845,102.405975 194.165802,109.370903 
	C194.159805,111.570320 195.052460,112.769218 197.410324,112.768120 
	C199.708176,112.767052 200.743469,111.718040 200.731720,109.450577 
	C200.712814,105.802299 200.749756,102.153740 200.763535,97.514481 
z"/>
</svg>